<svg id="Dots1" xmlns="http://www.w3.org/2000/svg" width="320" height="560" viewBox="0 0 320 560">
  <circle id="Oval" cx="4" cy="4" r="4" transform="translate(168 288)" fill="#f6f7fc"/>
  <circle id="Oval_Copy" data-name="Oval Copy" cx="4" cy="4" r="4" transform="translate(192 288)" fill="#f6f7fc"/>
  <circle id="Oval_Copy_2" data-name="Oval Copy 2" cx="4" cy="4" r="4" transform="translate(216 288)" fill="#f6f7fc"/>
  <circle id="Oval_Copy_4" data-name="Oval Copy 4" cx="4" cy="4" r="4" transform="translate(240 288)" fill="#f6f7fc"/>
  <circle id="Oval_Copy_3" data-name="Oval Copy 3" cx="4" cy="4" r="4" transform="translate(264 288)" fill="#f6f7fc"/>
  <circle id="Oval_Copy_6" data-name="Oval Copy 6" cx="4" cy="4" r="4" transform="translate(288 288)" fill="#f6f7fc"/>
  <circle id="Oval_Copy_5" data-name="Oval Copy 5" cx="4" cy="4" r="4" transform="translate(312 288)" fill="#f6f7fc"/>
  <circle id="Oval_Copy_13" data-name="Oval Copy 13" cx="4" cy="4" r="4" transform="translate(168 312)" fill="#f6f7fc"/>
  <circle id="Oval_Copy_12" data-name="Oval Copy 12" cx="4" cy="4" r="4" transform="translate(192 312)" fill="#f6f7fc"/>
  <circle id="Oval_Copy_11" data-name="Oval Copy 11" cx="4" cy="4" r="4" transform="translate(216 312)" fill="#f6f7fc"/>
  <circle id="Oval_Copy_10" data-name="Oval Copy 10" cx="4" cy="4" r="4" transform="translate(240 312)" fill="#f6f7fc"/>
  <circle id="Oval_Copy_9" data-name="Oval Copy 9" cx="4" cy="4" r="4" transform="translate(264 312)" fill="#f6f7fc"/>
  <circle id="Oval_Copy_8" data-name="Oval Copy 8" cx="4" cy="4" r="4" transform="translate(288 312)" fill="#f6f7fc"/>
  <circle id="Oval_Copy_7" data-name="Oval Copy 7" cx="4" cy="4" r="4" transform="translate(312 312)" fill="#f6f7fc"/>
  <circle id="Oval_Copy_20" data-name="Oval Copy 20" cx="4" cy="4" r="4" transform="translate(168 336)" fill="#f6f7fc"/>
  <circle id="Oval_Copy_19" data-name="Oval Copy 19" cx="4" cy="4" r="4" transform="translate(192 336)" fill="#f6f7fc"/>
  <circle id="Oval_Copy_18" data-name="Oval Copy 18" cx="4" cy="4" r="4" transform="translate(216 336)" fill="#f6f7fc"/>
  <circle id="Oval_Copy_17" data-name="Oval Copy 17" cx="4" cy="4" r="4" transform="translate(240 336)" fill="#f6f7fc"/>
  <circle id="Oval_Copy_16" data-name="Oval Copy 16" cx="4" cy="4" r="4" transform="translate(264 336)" fill="#f6f7fc"/>
  <circle id="Oval_Copy_15" data-name="Oval Copy 15" cx="4" cy="4" r="4" transform="translate(288 336)" fill="#f6f7fc"/>
  <circle id="Oval_Copy_14" data-name="Oval Copy 14" cx="4" cy="4" r="4" transform="translate(312 336)" fill="#f6f7fc"/>
  <circle id="Oval-2" data-name="Oval" cx="4" cy="4" r="4" transform="translate(168 360)" fill="#f6f7fc"/>
  <circle id="Oval_Copy-2" data-name="Oval Copy" cx="4" cy="4" r="4" transform="translate(192 360)" fill="#f6f7fc"/>
  <circle id="Oval_Copy_2-2" data-name="Oval Copy 2" cx="4" cy="4" r="4" transform="translate(216 360)" fill="#f6f7fc"/>
  <circle id="Oval_Copy_4-2" data-name="Oval Copy 4" cx="4" cy="4" r="4" transform="translate(240 360)" fill="#f6f7fc"/>
  <circle id="Oval_Copy_3-2" data-name="Oval Copy 3" cx="4" cy="4" r="4" transform="translate(264 360)" fill="#f6f7fc"/>
  <circle id="Oval_Copy_6-2" data-name="Oval Copy 6" cx="4" cy="4" r="4" transform="translate(288 360)" fill="#f6f7fc"/>
  <circle id="Oval_Copy_5-2" data-name="Oval Copy 5" cx="4" cy="4" r="4" transform="translate(312 360)" fill="#f6f7fc"/>
  <circle id="Oval_Copy_13-2" data-name="Oval Copy 13" cx="4" cy="4" r="4" transform="translate(168 384)" fill="#f6f7fc"/>
  <circle id="Oval_Copy_12-2" data-name="Oval Copy 12" cx="4" cy="4" r="4" transform="translate(192 384)" fill="#f6f7fc"/>
  <circle id="Oval_Copy_11-2" data-name="Oval Copy 11" cx="4" cy="4" r="4" transform="translate(216 384)" fill="#f6f7fc"/>
  <circle id="Oval_Copy_10-2" data-name="Oval Copy 10" cx="4" cy="4" r="4" transform="translate(240 384)" fill="#f6f7fc"/>
  <circle id="Oval_Copy_9-2" data-name="Oval Copy 9" cx="4" cy="4" r="4" transform="translate(264 384)" fill="#f6f7fc"/>
  <circle id="Oval_Copy_8-2" data-name="Oval Copy 8" cx="4" cy="4" r="4" transform="translate(288 384)" fill="#f6f7fc"/>
  <circle id="Oval_Copy_7-2" data-name="Oval Copy 7" cx="4" cy="4" r="4" transform="translate(312 384)" fill="#f6f7fc"/>
  <circle id="Oval_Copy_20-2" data-name="Oval Copy 20" cx="4" cy="4" r="4" transform="translate(168 408)" fill="#f6f7fc"/>
  <circle id="Oval_Copy_19-2" data-name="Oval Copy 19" cx="4" cy="4" r="4" transform="translate(192 408)" fill="#f6f7fc"/>
  <circle id="Oval_Copy_18-2" data-name="Oval Copy 18" cx="4" cy="4" r="4" transform="translate(216 408)" fill="#f6f7fc"/>
  <circle id="Oval_Copy_17-2" data-name="Oval Copy 17" cx="4" cy="4" r="4" transform="translate(240 408)" fill="#f6f7fc"/>
  <circle id="Oval_Copy_16-2" data-name="Oval Copy 16" cx="4" cy="4" r="4" transform="translate(264 408)" fill="#f6f7fc"/>
  <circle id="Oval_Copy_15-2" data-name="Oval Copy 15" cx="4" cy="4" r="4" transform="translate(288 408)" fill="#f6f7fc"/>
  <circle id="Oval_Copy_14-2" data-name="Oval Copy 14" cx="4" cy="4" r="4" transform="translate(312 408)" fill="#f6f7fc"/>
  <circle id="Oval_Copy_62" data-name="Oval Copy 62" cx="4" cy="4" r="4" transform="translate(168 432)" fill="#f6f7fc"/>
  <circle id="Oval_Copy_61" data-name="Oval Copy 61" cx="4" cy="4" r="4" transform="translate(192 432)" fill="#f6f7fc"/>
  <circle id="Oval_Copy_60" data-name="Oval Copy 60" cx="4" cy="4" r="4" transform="translate(216 432)" fill="#f6f7fc"/>
  <circle id="Oval_Copy_59" data-name="Oval Copy 59" cx="4" cy="4" r="4" transform="translate(240 432)" fill="#f6f7fc"/>
  <circle id="Oval_Copy_58" data-name="Oval Copy 58" cx="4" cy="4" r="4" transform="translate(264 432)" fill="#f6f7fc"/>
  <circle id="Oval_Copy_57" data-name="Oval Copy 57" cx="4" cy="4" r="4" transform="translate(288 432)" fill="#f6f7fc"/>
  <circle id="Oval_Copy_56" data-name="Oval Copy 56" cx="4" cy="4" r="4" transform="translate(312 432)" fill="#f6f7fc"/>
  <circle id="Oval_Copy_55" data-name="Oval Copy 55" cx="4" cy="4" r="4" transform="translate(168 456)" fill="#f6f7fc"/>
  <circle id="Oval_Copy_54" data-name="Oval Copy 54" cx="4" cy="4" r="4" transform="translate(192 456)" fill="#f6f7fc"/>
  <circle id="Oval_Copy_53" data-name="Oval Copy 53" cx="4" cy="4" r="4" transform="translate(216 456)" fill="#f6f7fc"/>
  <circle id="Oval_Copy_52" data-name="Oval Copy 52" cx="4" cy="4" r="4" transform="translate(240 456)" fill="#f6f7fc"/>
  <circle id="Oval_Copy_51" data-name="Oval Copy 51" cx="4" cy="4" r="4" transform="translate(264 456)" fill="#f6f7fc"/>
  <circle id="Oval_Copy_50" data-name="Oval Copy 50" cx="4" cy="4" r="4" transform="translate(288 456)" fill="#f6f7fc"/>
  <circle id="Oval_Copy_49" data-name="Oval Copy 49" cx="4" cy="4" r="4" transform="translate(312 456)" fill="#f6f7fc"/>
  <circle id="Oval_Copy_48" data-name="Oval Copy 48" cx="4" cy="4" r="4" transform="translate(168 480)" fill="#f6f7fc"/>
  <circle id="Oval_Copy_47" data-name="Oval Copy 47" cx="4" cy="4" r="4" transform="translate(192 480)" fill="#f6f7fc"/>
  <circle id="Oval_Copy_46" data-name="Oval Copy 46" cx="4" cy="4" r="4" transform="translate(216 480)" fill="#f6f7fc"/>
  <circle id="Oval_Copy_45" data-name="Oval Copy 45" cx="4" cy="4" r="4" transform="translate(240 480)" fill="#f6f7fc"/>
  <circle id="Oval_Copy_44" data-name="Oval Copy 44" cx="4" cy="4" r="4" transform="translate(264 480)" fill="#f6f7fc"/>
  <circle id="Oval_Copy_43" data-name="Oval Copy 43" cx="4" cy="4" r="4" transform="translate(288 480)" fill="#f6f7fc"/>
  <circle id="Oval_Copy_42" data-name="Oval Copy 42" cx="4" cy="4" r="4" transform="translate(312 480)" fill="#f6f7fc"/>
  <circle id="Oval_Copy_41" data-name="Oval Copy 41" cx="4" cy="4" r="4" transform="translate(168 504)" fill="#f6f7fc"/>
  <circle id="Oval_Copy_40" data-name="Oval Copy 40" cx="4" cy="4" r="4" transform="translate(192 504)" fill="#f6f7fc"/>
  <circle id="Oval_Copy_39" data-name="Oval Copy 39" cx="4" cy="4" r="4" transform="translate(216 504)" fill="#f6f7fc"/>
  <circle id="Oval_Copy_38" data-name="Oval Copy 38" cx="4" cy="4" r="4" transform="translate(240 504)" fill="#f6f7fc"/>
  <circle id="Oval_Copy_37" data-name="Oval Copy 37" cx="4" cy="4" r="4" transform="translate(264 504)" fill="#f6f7fc"/>
  <circle id="Oval_Copy_36" data-name="Oval Copy 36" cx="4" cy="4" r="4" transform="translate(288 504)" fill="#f6f7fc"/>
  <circle id="Oval_Copy_35" data-name="Oval Copy 35" cx="4" cy="4" r="4" transform="translate(312 504)" fill="#f6f7fc"/>
  <circle id="Oval_Copy_34" data-name="Oval Copy 34" cx="4" cy="4" r="4" transform="translate(168 528)" fill="#f6f7fc"/>
  <circle id="Oval_Copy_33" data-name="Oval Copy 33" cx="4" cy="4" r="4" transform="translate(192 528)" fill="#f6f7fc"/>
  <circle id="Oval_Copy_32" data-name="Oval Copy 32" cx="4" cy="4" r="4" transform="translate(216 528)" fill="#f6f7fc"/>
  <circle id="Oval_Copy_31" data-name="Oval Copy 31" cx="4" cy="4" r="4" transform="translate(240 528)" fill="#f6f7fc"/>
  <circle id="Oval_Copy_30" data-name="Oval Copy 30" cx="4" cy="4" r="4" transform="translate(264 528)" fill="#f6f7fc"/>
  <circle id="Oval_Copy_29" data-name="Oval Copy 29" cx="4" cy="4" r="4" transform="translate(288 528)" fill="#f6f7fc"/>
  <circle id="Oval_Copy_28" data-name="Oval Copy 28" cx="4" cy="4" r="4" transform="translate(312 528)" fill="#f6f7fc"/>
  <circle id="Oval_Copy_27" data-name="Oval Copy 27" cx="4" cy="4" r="4" transform="translate(168 552)" fill="#f6f7fc"/>
  <circle id="Oval_Copy_26" data-name="Oval Copy 26" cx="4" cy="4" r="4" transform="translate(192 552)" fill="#f6f7fc"/>
  <circle id="Oval_Copy_25" data-name="Oval Copy 25" cx="4" cy="4" r="4" transform="translate(216 552)" fill="#f6f7fc"/>
  <circle id="Oval_Copy_24" data-name="Oval Copy 24" cx="4" cy="4" r="4" transform="translate(240 552)" fill="#f6f7fc"/>
  <circle id="Oval_Copy_23" data-name="Oval Copy 23" cx="4" cy="4" r="4" transform="translate(264 552)" fill="#f6f7fc"/>
  <circle id="Oval_Copy_22" data-name="Oval Copy 22" cx="4" cy="4" r="4" transform="translate(288 552)" fill="#f6f7fc"/>
  <circle id="Oval_Copy_21" data-name="Oval Copy 21" cx="4" cy="4" r="4" transform="translate(312 552)" fill="#f6f7fc"/>
  <circle id="Oval-3" data-name="Oval" cx="4" cy="4" r="4" transform="translate(0 288)" fill="#f6f7fc"/>
  <circle id="Oval_Copy-3" data-name="Oval Copy" cx="4" cy="4" r="4" transform="translate(24 288)" fill="#f6f7fc"/>
  <circle id="Oval_Copy_2-3" data-name="Oval Copy 2" cx="4" cy="4" r="4" transform="translate(48 288)" fill="#f6f7fc"/>
  <circle id="Oval_Copy_4-3" data-name="Oval Copy 4" cx="4" cy="4" r="4" transform="translate(72 288)" fill="#f6f7fc"/>
  <circle id="Oval_Copy_3-3" data-name="Oval Copy 3" cx="4" cy="4" r="4" transform="translate(96 288)" fill="#f6f7fc"/>
  <circle id="Oval_Copy_6-3" data-name="Oval Copy 6" cx="4" cy="4" r="4" transform="translate(120 288)" fill="#f6f7fc"/>
  <circle id="Oval_Copy_5-3" data-name="Oval Copy 5" cx="4" cy="4" r="4" transform="translate(144 288)" fill="#f6f7fc"/>
  <circle id="Oval_Copy_13-3" data-name="Oval Copy 13" cx="4" cy="4" r="4" transform="translate(0 312)" fill="#f6f7fc"/>
  <circle id="Oval_Copy_12-3" data-name="Oval Copy 12" cx="4" cy="4" r="4" transform="translate(24 312)" fill="#f6f7fc"/>
  <circle id="Oval_Copy_11-3" data-name="Oval Copy 11" cx="4" cy="4" r="4" transform="translate(48 312)" fill="#f6f7fc"/>
  <circle id="Oval_Copy_10-3" data-name="Oval Copy 10" cx="4" cy="4" r="4" transform="translate(72 312)" fill="#f6f7fc"/>
  <circle id="Oval_Copy_9-3" data-name="Oval Copy 9" cx="4" cy="4" r="4" transform="translate(96 312)" fill="#f6f7fc"/>
  <circle id="Oval_Copy_8-3" data-name="Oval Copy 8" cx="4" cy="4" r="4" transform="translate(120 312)" fill="#f6f7fc"/>
  <circle id="Oval_Copy_7-3" data-name="Oval Copy 7" cx="4" cy="4" r="4" transform="translate(144 312)" fill="#f6f7fc"/>
  <circle id="Oval_Copy_20-3" data-name="Oval Copy 20" cx="4" cy="4" r="4" transform="translate(0 336)" fill="#f6f7fc"/>
  <circle id="Oval_Copy_19-3" data-name="Oval Copy 19" cx="4" cy="4" r="4" transform="translate(24 336)" fill="#f6f7fc"/>
  <circle id="Oval_Copy_18-3" data-name="Oval Copy 18" cx="4" cy="4" r="4" transform="translate(48 336)" fill="#f6f7fc"/>
  <circle id="Oval_Copy_17-3" data-name="Oval Copy 17" cx="4" cy="4" r="4" transform="translate(72 336)" fill="#f6f7fc"/>
  <circle id="Oval_Copy_16-3" data-name="Oval Copy 16" cx="4" cy="4" r="4" transform="translate(96 336)" fill="#f6f7fc"/>
  <circle id="Oval_Copy_15-3" data-name="Oval Copy 15" cx="4" cy="4" r="4" transform="translate(120 336)" fill="#f6f7fc"/>
  <circle id="Oval_Copy_14-3" data-name="Oval Copy 14" cx="4" cy="4" r="4" transform="translate(144 336)" fill="#f6f7fc"/>
  <circle id="Oval-4" data-name="Oval" cx="4" cy="4" r="4" transform="translate(0 360)" fill="#f6f7fc"/>
  <circle id="Oval_Copy-4" data-name="Oval Copy" cx="4" cy="4" r="4" transform="translate(24 360)" fill="#f6f7fc"/>
  <circle id="Oval_Copy_2-4" data-name="Oval Copy 2" cx="4" cy="4" r="4" transform="translate(48 360)" fill="#f6f7fc"/>
  <circle id="Oval_Copy_4-4" data-name="Oval Copy 4" cx="4" cy="4" r="4" transform="translate(72 360)" fill="#f6f7fc"/>
  <circle id="Oval_Copy_3-4" data-name="Oval Copy 3" cx="4" cy="4" r="4" transform="translate(96 360)" fill="#f6f7fc"/>
  <circle id="Oval_Copy_6-4" data-name="Oval Copy 6" cx="4" cy="4" r="4" transform="translate(120 360)" fill="#f6f7fc"/>
  <circle id="Oval_Copy_5-4" data-name="Oval Copy 5" cx="4" cy="4" r="4" transform="translate(144 360)" fill="#f6f7fc"/>
  <circle id="Oval_Copy_13-4" data-name="Oval Copy 13" cx="4" cy="4" r="4" transform="translate(0 384)" fill="#f6f7fc"/>
  <circle id="Oval_Copy_12-4" data-name="Oval Copy 12" cx="4" cy="4" r="4" transform="translate(24 384)" fill="#f6f7fc"/>
  <circle id="Oval_Copy_11-4" data-name="Oval Copy 11" cx="4" cy="4" r="4" transform="translate(48 384)" fill="#f6f7fc"/>
  <circle id="Oval_Copy_10-4" data-name="Oval Copy 10" cx="4" cy="4" r="4" transform="translate(72 384)" fill="#f6f7fc"/>
  <circle id="Oval_Copy_9-4" data-name="Oval Copy 9" cx="4" cy="4" r="4" transform="translate(96 384)" fill="#f6f7fc"/>
  <circle id="Oval_Copy_8-4" data-name="Oval Copy 8" cx="4" cy="4" r="4" transform="translate(120 384)" fill="#f6f7fc"/>
  <circle id="Oval_Copy_7-4" data-name="Oval Copy 7" cx="4" cy="4" r="4" transform="translate(144 384)" fill="#f6f7fc"/>
  <circle id="Oval_Copy_20-4" data-name="Oval Copy 20" cx="4" cy="4" r="4" transform="translate(0 408)" fill="#f6f7fc"/>
  <circle id="Oval_Copy_19-4" data-name="Oval Copy 19" cx="4" cy="4" r="4" transform="translate(24 408)" fill="#f6f7fc"/>
  <circle id="Oval_Copy_18-4" data-name="Oval Copy 18" cx="4" cy="4" r="4" transform="translate(48 408)" fill="#f6f7fc"/>
  <circle id="Oval_Copy_17-4" data-name="Oval Copy 17" cx="4" cy="4" r="4" transform="translate(72 408)" fill="#f6f7fc"/>
  <circle id="Oval_Copy_16-4" data-name="Oval Copy 16" cx="4" cy="4" r="4" transform="translate(96 408)" fill="#f6f7fc"/>
  <circle id="Oval_Copy_15-4" data-name="Oval Copy 15" cx="4" cy="4" r="4" transform="translate(120 408)" fill="#f6f7fc"/>
  <circle id="Oval_Copy_14-4" data-name="Oval Copy 14" cx="4" cy="4" r="4" transform="translate(144 408)" fill="#f6f7fc"/>
  <circle id="Oval_Copy_62-2" data-name="Oval Copy 62" cx="4" cy="4" r="4" transform="translate(0 432)" fill="#f6f7fc"/>
  <circle id="Oval_Copy_61-2" data-name="Oval Copy 61" cx="4" cy="4" r="4" transform="translate(24 432)" fill="#f6f7fc"/>
  <circle id="Oval_Copy_60-2" data-name="Oval Copy 60" cx="4" cy="4" r="4" transform="translate(48 432)" fill="#f6f7fc"/>
  <circle id="Oval_Copy_59-2" data-name="Oval Copy 59" cx="4" cy="4" r="4" transform="translate(72 432)" fill="#f6f7fc"/>
  <circle id="Oval_Copy_58-2" data-name="Oval Copy 58" cx="4" cy="4" r="4" transform="translate(96 432)" fill="#f6f7fc"/>
  <circle id="Oval_Copy_57-2" data-name="Oval Copy 57" cx="4" cy="4" r="4" transform="translate(120 432)" fill="#f6f7fc"/>
  <circle id="Oval_Copy_56-2" data-name="Oval Copy 56" cx="4" cy="4" r="4" transform="translate(144 432)" fill="#f6f7fc"/>
  <circle id="Oval_Copy_55-2" data-name="Oval Copy 55" cx="4" cy="4" r="4" transform="translate(0 456)" fill="#f6f7fc"/>
  <circle id="Oval_Copy_54-2" data-name="Oval Copy 54" cx="4" cy="4" r="4" transform="translate(24 456)" fill="#f6f7fc"/>
  <circle id="Oval_Copy_53-2" data-name="Oval Copy 53" cx="4" cy="4" r="4" transform="translate(48 456)" fill="#f6f7fc"/>
  <circle id="Oval_Copy_52-2" data-name="Oval Copy 52" cx="4" cy="4" r="4" transform="translate(72 456)" fill="#f6f7fc"/>
  <circle id="Oval_Copy_51-2" data-name="Oval Copy 51" cx="4" cy="4" r="4" transform="translate(96 456)" fill="#f6f7fc"/>
  <circle id="Oval_Copy_50-2" data-name="Oval Copy 50" cx="4" cy="4" r="4" transform="translate(120 456)" fill="#f6f7fc"/>
  <circle id="Oval_Copy_49-2" data-name="Oval Copy 49" cx="4" cy="4" r="4" transform="translate(144 456)" fill="#f6f7fc"/>
  <circle id="Oval_Copy_48-2" data-name="Oval Copy 48" cx="4" cy="4" r="4" transform="translate(0 480)" fill="#f6f7fc"/>
  <circle id="Oval_Copy_47-2" data-name="Oval Copy 47" cx="4" cy="4" r="4" transform="translate(24 480)" fill="#f6f7fc"/>
  <circle id="Oval_Copy_46-2" data-name="Oval Copy 46" cx="4" cy="4" r="4" transform="translate(48 480)" fill="#f6f7fc"/>
  <circle id="Oval_Copy_45-2" data-name="Oval Copy 45" cx="4" cy="4" r="4" transform="translate(72 480)" fill="#f6f7fc"/>
  <circle id="Oval_Copy_44-2" data-name="Oval Copy 44" cx="4" cy="4" r="4" transform="translate(96 480)" fill="#f6f7fc"/>
  <circle id="Oval_Copy_43-2" data-name="Oval Copy 43" cx="4" cy="4" r="4" transform="translate(120 480)" fill="#f6f7fc"/>
  <circle id="Oval_Copy_42-2" data-name="Oval Copy 42" cx="4" cy="4" r="4" transform="translate(144 480)" fill="#f6f7fc"/>
  <circle id="Oval_Copy_41-2" data-name="Oval Copy 41" cx="4" cy="4" r="4" transform="translate(0 504)" fill="#f6f7fc"/>
  <circle id="Oval_Copy_40-2" data-name="Oval Copy 40" cx="4" cy="4" r="4" transform="translate(24 504)" fill="#f6f7fc"/>
  <circle id="Oval_Copy_39-2" data-name="Oval Copy 39" cx="4" cy="4" r="4" transform="translate(48 504)" fill="#f6f7fc"/>
  <circle id="Oval_Copy_38-2" data-name="Oval Copy 38" cx="4" cy="4" r="4" transform="translate(72 504)" fill="#f6f7fc"/>
  <circle id="Oval_Copy_37-2" data-name="Oval Copy 37" cx="4" cy="4" r="4" transform="translate(96 504)" fill="#f6f7fc"/>
  <circle id="Oval_Copy_36-2" data-name="Oval Copy 36" cx="4" cy="4" r="4" transform="translate(120 504)" fill="#f6f7fc"/>
  <circle id="Oval_Copy_35-2" data-name="Oval Copy 35" cx="4" cy="4" r="4" transform="translate(144 504)" fill="#f6f7fc"/>
  <circle id="Oval_Copy_34-2" data-name="Oval Copy 34" cx="4" cy="4" r="4" transform="translate(0 528)" fill="#f6f7fc"/>
  <circle id="Oval_Copy_33-2" data-name="Oval Copy 33" cx="4" cy="4" r="4" transform="translate(24 528)" fill="#f6f7fc"/>
  <circle id="Oval_Copy_32-2" data-name="Oval Copy 32" cx="4" cy="4" r="4" transform="translate(48 528)" fill="#f6f7fc"/>
  <circle id="Oval_Copy_31-2" data-name="Oval Copy 31" cx="4" cy="4" r="4" transform="translate(72 528)" fill="#f6f7fc"/>
  <circle id="Oval_Copy_30-2" data-name="Oval Copy 30" cx="4" cy="4" r="4" transform="translate(96 528)" fill="#f6f7fc"/>
  <circle id="Oval_Copy_29-2" data-name="Oval Copy 29" cx="4" cy="4" r="4" transform="translate(120 528)" fill="#f6f7fc"/>
  <circle id="Oval_Copy_28-2" data-name="Oval Copy 28" cx="4" cy="4" r="4" transform="translate(144 528)" fill="#f6f7fc"/>
  <circle id="Oval_Copy_27-2" data-name="Oval Copy 27" cx="4" cy="4" r="4" transform="translate(0 552)" fill="#f6f7fc"/>
  <circle id="Oval_Copy_26-2" data-name="Oval Copy 26" cx="4" cy="4" r="4" transform="translate(24 552)" fill="#f6f7fc"/>
  <circle id="Oval_Copy_25-2" data-name="Oval Copy 25" cx="4" cy="4" r="4" transform="translate(48 552)" fill="#f6f7fc"/>
  <circle id="Oval_Copy_24-2" data-name="Oval Copy 24" cx="4" cy="4" r="4" transform="translate(72 552)" fill="#f6f7fc"/>
  <circle id="Oval_Copy_23-2" data-name="Oval Copy 23" cx="4" cy="4" r="4" transform="translate(96 552)" fill="#f6f7fc"/>
  <circle id="Oval_Copy_22-2" data-name="Oval Copy 22" cx="4" cy="4" r="4" transform="translate(120 552)" fill="#f6f7fc"/>
  <circle id="Oval_Copy_21-2" data-name="Oval Copy 21" cx="4" cy="4" r="4" transform="translate(144 552)" fill="#f6f7fc"/>
  <circle id="Oval-5" data-name="Oval" cx="4" cy="4" r="4" transform="translate(168)" fill="#f6f7fc"/>
  <circle id="Oval_Copy-5" data-name="Oval Copy" cx="4" cy="4" r="4" transform="translate(192)" fill="#f6f7fc"/>
  <circle id="Oval_Copy_2-5" data-name="Oval Copy 2" cx="4" cy="4" r="4" transform="translate(216)" fill="#f6f7fc"/>
  <circle id="Oval_Copy_4-5" data-name="Oval Copy 4" cx="4" cy="4" r="4" transform="translate(240)" fill="#f6f7fc"/>
  <circle id="Oval_Copy_3-5" data-name="Oval Copy 3" cx="4" cy="4" r="4" transform="translate(264)" fill="#f6f7fc"/>
  <circle id="Oval_Copy_6-5" data-name="Oval Copy 6" cx="4" cy="4" r="4" transform="translate(288)" fill="#f6f7fc"/>
  <circle id="Oval_Copy_5-5" data-name="Oval Copy 5" cx="4" cy="4" r="4" transform="translate(312)" fill="#f6f7fc"/>
  <circle id="Oval_Copy_13-5" data-name="Oval Copy 13" cx="4" cy="4" r="4" transform="translate(168 24)" fill="#f6f7fc"/>
  <circle id="Oval_Copy_12-5" data-name="Oval Copy 12" cx="4" cy="4" r="4" transform="translate(192 24)" fill="#f6f7fc"/>
  <circle id="Oval_Copy_11-5" data-name="Oval Copy 11" cx="4" cy="4" r="4" transform="translate(216 24)" fill="#f6f7fc"/>
  <circle id="Oval_Copy_10-5" data-name="Oval Copy 10" cx="4" cy="4" r="4" transform="translate(240 24)" fill="#f6f7fc"/>
  <circle id="Oval_Copy_9-5" data-name="Oval Copy 9" cx="4" cy="4" r="4" transform="translate(264 24)" fill="#f6f7fc"/>
  <circle id="Oval_Copy_8-5" data-name="Oval Copy 8" cx="4" cy="4" r="4" transform="translate(288 24)" fill="#f6f7fc"/>
  <circle id="Oval_Copy_7-5" data-name="Oval Copy 7" cx="4" cy="4" r="4" transform="translate(312 24)" fill="#f6f7fc"/>
  <circle id="Oval_Copy_20-5" data-name="Oval Copy 20" cx="4" cy="4" r="4" transform="translate(168 48)" fill="#f6f7fc"/>
  <circle id="Oval_Copy_19-5" data-name="Oval Copy 19" cx="4" cy="4" r="4" transform="translate(192 48)" fill="#f6f7fc"/>
  <circle id="Oval_Copy_18-5" data-name="Oval Copy 18" cx="4" cy="4" r="4" transform="translate(216 48)" fill="#f6f7fc"/>
  <circle id="Oval_Copy_17-5" data-name="Oval Copy 17" cx="4" cy="4" r="4" transform="translate(240 48)" fill="#f6f7fc"/>
  <circle id="Oval_Copy_16-5" data-name="Oval Copy 16" cx="4" cy="4" r="4" transform="translate(264 48)" fill="#f6f7fc"/>
  <circle id="Oval_Copy_15-5" data-name="Oval Copy 15" cx="4" cy="4" r="4" transform="translate(288 48)" fill="#f6f7fc"/>
  <circle id="Oval_Copy_14-5" data-name="Oval Copy 14" cx="4" cy="4" r="4" transform="translate(312 48)" fill="#f6f7fc"/>
  <circle id="Oval-6" data-name="Oval" cx="4" cy="4" r="4" transform="translate(168 72)" fill="#f6f7fc"/>
  <circle id="Oval_Copy-6" data-name="Oval Copy" cx="4" cy="4" r="4" transform="translate(192 72)" fill="#f6f7fc"/>
  <circle id="Oval_Copy_2-6" data-name="Oval Copy 2" cx="4" cy="4" r="4" transform="translate(216 72)" fill="#f6f7fc"/>
  <circle id="Oval_Copy_4-6" data-name="Oval Copy 4" cx="4" cy="4" r="4" transform="translate(240 72)" fill="#f6f7fc"/>
  <circle id="Oval_Copy_3-6" data-name="Oval Copy 3" cx="4" cy="4" r="4" transform="translate(264 72)" fill="#f6f7fc"/>
  <circle id="Oval_Copy_6-6" data-name="Oval Copy 6" cx="4" cy="4" r="4" transform="translate(288 72)" fill="#f6f7fc"/>
  <circle id="Oval_Copy_5-6" data-name="Oval Copy 5" cx="4" cy="4" r="4" transform="translate(312 72)" fill="#f6f7fc"/>
  <circle id="Oval_Copy_13-6" data-name="Oval Copy 13" cx="4" cy="4" r="4" transform="translate(168 96)" fill="#f6f7fc"/>
  <circle id="Oval_Copy_12-6" data-name="Oval Copy 12" cx="4" cy="4" r="4" transform="translate(192 96)" fill="#f6f7fc"/>
  <circle id="Oval_Copy_11-6" data-name="Oval Copy 11" cx="4" cy="4" r="4" transform="translate(216 96)" fill="#f6f7fc"/>
  <circle id="Oval_Copy_10-6" data-name="Oval Copy 10" cx="4" cy="4" r="4" transform="translate(240 96)" fill="#f6f7fc"/>
  <circle id="Oval_Copy_9-6" data-name="Oval Copy 9" cx="4" cy="4" r="4" transform="translate(264 96)" fill="#f6f7fc"/>
  <circle id="Oval_Copy_8-6" data-name="Oval Copy 8" cx="4" cy="4" r="4" transform="translate(288 96)" fill="#f6f7fc"/>
  <circle id="Oval_Copy_7-6" data-name="Oval Copy 7" cx="4" cy="4" r="4" transform="translate(312 96)" fill="#f6f7fc"/>
  <circle id="Oval_Copy_20-6" data-name="Oval Copy 20" cx="4" cy="4" r="4" transform="translate(168 120)" fill="#f6f7fc"/>
  <circle id="Oval_Copy_19-6" data-name="Oval Copy 19" cx="4" cy="4" r="4" transform="translate(192 120)" fill="#f6f7fc"/>
  <circle id="Oval_Copy_18-6" data-name="Oval Copy 18" cx="4" cy="4" r="4" transform="translate(216 120)" fill="#f6f7fc"/>
  <circle id="Oval_Copy_17-6" data-name="Oval Copy 17" cx="4" cy="4" r="4" transform="translate(240 120)" fill="#f6f7fc"/>
  <circle id="Oval_Copy_16-6" data-name="Oval Copy 16" cx="4" cy="4" r="4" transform="translate(264 120)" fill="#f6f7fc"/>
  <circle id="Oval_Copy_15-6" data-name="Oval Copy 15" cx="4" cy="4" r="4" transform="translate(288 120)" fill="#f6f7fc"/>
  <circle id="Oval_Copy_14-6" data-name="Oval Copy 14" cx="4" cy="4" r="4" transform="translate(312 120)" fill="#f6f7fc"/>
  <circle id="Oval_Copy_62-3" data-name="Oval Copy 62" cx="4" cy="4" r="4" transform="translate(168 144)" fill="#f6f7fc"/>
  <circle id="Oval_Copy_61-3" data-name="Oval Copy 61" cx="4" cy="4" r="4" transform="translate(192 144)" fill="#f6f7fc"/>
  <circle id="Oval_Copy_60-3" data-name="Oval Copy 60" cx="4" cy="4" r="4" transform="translate(216 144)" fill="#f6f7fc"/>
  <circle id="Oval_Copy_59-3" data-name="Oval Copy 59" cx="4" cy="4" r="4" transform="translate(240 144)" fill="#f6f7fc"/>
  <circle id="Oval_Copy_58-3" data-name="Oval Copy 58" cx="4" cy="4" r="4" transform="translate(264 144)" fill="#f6f7fc"/>
  <circle id="Oval_Copy_57-3" data-name="Oval Copy 57" cx="4" cy="4" r="4" transform="translate(288 144)" fill="#f6f7fc"/>
  <circle id="Oval_Copy_56-3" data-name="Oval Copy 56" cx="4" cy="4" r="4" transform="translate(312 144)" fill="#f6f7fc"/>
  <circle id="Oval_Copy_55-3" data-name="Oval Copy 55" cx="4" cy="4" r="4" transform="translate(168 168)" fill="#f6f7fc"/>
  <circle id="Oval_Copy_54-3" data-name="Oval Copy 54" cx="4" cy="4" r="4" transform="translate(192 168)" fill="#f6f7fc"/>
  <circle id="Oval_Copy_53-3" data-name="Oval Copy 53" cx="4" cy="4" r="4" transform="translate(216 168)" fill="#f6f7fc"/>
  <circle id="Oval_Copy_52-3" data-name="Oval Copy 52" cx="4" cy="4" r="4" transform="translate(240 168)" fill="#f6f7fc"/>
  <circle id="Oval_Copy_51-3" data-name="Oval Copy 51" cx="4" cy="4" r="4" transform="translate(264 168)" fill="#f6f7fc"/>
  <circle id="Oval_Copy_50-3" data-name="Oval Copy 50" cx="4" cy="4" r="4" transform="translate(288 168)" fill="#f6f7fc"/>
  <circle id="Oval_Copy_49-3" data-name="Oval Copy 49" cx="4" cy="4" r="4" transform="translate(312 168)" fill="#f6f7fc"/>
  <circle id="Oval_Copy_48-3" data-name="Oval Copy 48" cx="4" cy="4" r="4" transform="translate(168 192)" fill="#f6f7fc"/>
  <circle id="Oval_Copy_47-3" data-name="Oval Copy 47" cx="4" cy="4" r="4" transform="translate(192 192)" fill="#f6f7fc"/>
  <circle id="Oval_Copy_46-3" data-name="Oval Copy 46" cx="4" cy="4" r="4" transform="translate(216 192)" fill="#f6f7fc"/>
  <circle id="Oval_Copy_45-3" data-name="Oval Copy 45" cx="4" cy="4" r="4" transform="translate(240 192)" fill="#f6f7fc"/>
  <circle id="Oval_Copy_44-3" data-name="Oval Copy 44" cx="4" cy="4" r="4" transform="translate(264 192)" fill="#f6f7fc"/>
  <circle id="Oval_Copy_43-3" data-name="Oval Copy 43" cx="4" cy="4" r="4" transform="translate(288 192)" fill="#f6f7fc"/>
  <circle id="Oval_Copy_42-3" data-name="Oval Copy 42" cx="4" cy="4" r="4" transform="translate(312 192)" fill="#f6f7fc"/>
  <circle id="Oval_Copy_41-3" data-name="Oval Copy 41" cx="4" cy="4" r="4" transform="translate(168 216)" fill="#f6f7fc"/>
  <circle id="Oval_Copy_40-3" data-name="Oval Copy 40" cx="4" cy="4" r="4" transform="translate(192 216)" fill="#f6f7fc"/>
  <circle id="Oval_Copy_39-3" data-name="Oval Copy 39" cx="4" cy="4" r="4" transform="translate(216 216)" fill="#f6f7fc"/>
  <circle id="Oval_Copy_38-3" data-name="Oval Copy 38" cx="4" cy="4" r="4" transform="translate(240 216)" fill="#f6f7fc"/>
  <circle id="Oval_Copy_37-3" data-name="Oval Copy 37" cx="4" cy="4" r="4" transform="translate(264 216)" fill="#f6f7fc"/>
  <circle id="Oval_Copy_36-3" data-name="Oval Copy 36" cx="4" cy="4" r="4" transform="translate(288 216)" fill="#f6f7fc"/>
  <circle id="Oval_Copy_35-3" data-name="Oval Copy 35" cx="4" cy="4" r="4" transform="translate(312 216)" fill="#f6f7fc"/>
  <circle id="Oval_Copy_34-3" data-name="Oval Copy 34" cx="4" cy="4" r="4" transform="translate(168 240)" fill="#f6f7fc"/>
  <circle id="Oval_Copy_33-3" data-name="Oval Copy 33" cx="4" cy="4" r="4" transform="translate(192 240)" fill="#f6f7fc"/>
  <circle id="Oval_Copy_32-3" data-name="Oval Copy 32" cx="4" cy="4" r="4" transform="translate(216 240)" fill="#f6f7fc"/>
  <circle id="Oval_Copy_31-3" data-name="Oval Copy 31" cx="4" cy="4" r="4" transform="translate(240 240)" fill="#f6f7fc"/>
  <circle id="Oval_Copy_30-3" data-name="Oval Copy 30" cx="4" cy="4" r="4" transform="translate(264 240)" fill="#f6f7fc"/>
  <circle id="Oval_Copy_29-3" data-name="Oval Copy 29" cx="4" cy="4" r="4" transform="translate(288 240)" fill="#f6f7fc"/>
  <circle id="Oval_Copy_28-3" data-name="Oval Copy 28" cx="4" cy="4" r="4" transform="translate(312 240)" fill="#f6f7fc"/>
  <circle id="Oval_Copy_27-3" data-name="Oval Copy 27" cx="4" cy="4" r="4" transform="translate(168 264)" fill="#f6f7fc"/>
  <circle id="Oval_Copy_26-3" data-name="Oval Copy 26" cx="4" cy="4" r="4" transform="translate(192 264)" fill="#f6f7fc"/>
  <circle id="Oval_Copy_25-3" data-name="Oval Copy 25" cx="4" cy="4" r="4" transform="translate(216 264)" fill="#f6f7fc"/>
  <circle id="Oval_Copy_24-3" data-name="Oval Copy 24" cx="4" cy="4" r="4" transform="translate(240 264)" fill="#f6f7fc"/>
  <circle id="Oval_Copy_23-3" data-name="Oval Copy 23" cx="4" cy="4" r="4" transform="translate(264 264)" fill="#f6f7fc"/>
  <circle id="Oval_Copy_22-3" data-name="Oval Copy 22" cx="4" cy="4" r="4" transform="translate(288 264)" fill="#f6f7fc"/>
  <circle id="Oval_Copy_21-3" data-name="Oval Copy 21" cx="4" cy="4" r="4" transform="translate(312 264)" fill="#f6f7fc"/>
  <circle id="Oval-7" data-name="Oval" cx="4" cy="4" r="4" fill="#f6f7fc"/>
  <circle id="Oval_Copy-7" data-name="Oval Copy" cx="4" cy="4" r="4" transform="translate(24)" fill="#f6f7fc"/>
  <circle id="Oval_Copy_2-7" data-name="Oval Copy 2" cx="4" cy="4" r="4" transform="translate(48)" fill="#f6f7fc"/>
  <circle id="Oval_Copy_4-7" data-name="Oval Copy 4" cx="4" cy="4" r="4" transform="translate(72)" fill="#f6f7fc"/>
  <circle id="Oval_Copy_3-7" data-name="Oval Copy 3" cx="4" cy="4" r="4" transform="translate(96)" fill="#f6f7fc"/>
  <circle id="Oval_Copy_6-7" data-name="Oval Copy 6" cx="4" cy="4" r="4" transform="translate(120)" fill="#f6f7fc"/>
  <circle id="Oval_Copy_5-7" data-name="Oval Copy 5" cx="4" cy="4" r="4" transform="translate(144)" fill="#f6f7fc"/>
  <circle id="Oval_Copy_13-7" data-name="Oval Copy 13" cx="4" cy="4" r="4" transform="translate(0 24)" fill="#f6f7fc"/>
  <circle id="Oval_Copy_12-7" data-name="Oval Copy 12" cx="4" cy="4" r="4" transform="translate(24 24)" fill="#f6f7fc"/>
  <circle id="Oval_Copy_11-7" data-name="Oval Copy 11" cx="4" cy="4" r="4" transform="translate(48 24)" fill="#f6f7fc"/>
  <circle id="Oval_Copy_10-7" data-name="Oval Copy 10" cx="4" cy="4" r="4" transform="translate(72 24)" fill="#f6f7fc"/>
  <circle id="Oval_Copy_9-7" data-name="Oval Copy 9" cx="4" cy="4" r="4" transform="translate(96 24)" fill="#f6f7fc"/>
  <circle id="Oval_Copy_8-7" data-name="Oval Copy 8" cx="4" cy="4" r="4" transform="translate(120 24)" fill="#f6f7fc"/>
  <circle id="Oval_Copy_7-7" data-name="Oval Copy 7" cx="4" cy="4" r="4" transform="translate(144 24)" fill="#f6f7fc"/>
  <circle id="Oval_Copy_20-7" data-name="Oval Copy 20" cx="4" cy="4" r="4" transform="translate(0 48)" fill="#f6f7fc"/>
  <circle id="Oval_Copy_19-7" data-name="Oval Copy 19" cx="4" cy="4" r="4" transform="translate(24 48)" fill="#f6f7fc"/>
  <circle id="Oval_Copy_18-7" data-name="Oval Copy 18" cx="4" cy="4" r="4" transform="translate(48 48)" fill="#f6f7fc"/>
  <circle id="Oval_Copy_17-7" data-name="Oval Copy 17" cx="4" cy="4" r="4" transform="translate(72 48)" fill="#f6f7fc"/>
  <circle id="Oval_Copy_16-7" data-name="Oval Copy 16" cx="4" cy="4" r="4" transform="translate(96 48)" fill="#f6f7fc"/>
  <circle id="Oval_Copy_15-7" data-name="Oval Copy 15" cx="4" cy="4" r="4" transform="translate(120 48)" fill="#f6f7fc"/>
  <circle id="Oval_Copy_14-7" data-name="Oval Copy 14" cx="4" cy="4" r="4" transform="translate(144 48)" fill="#f6f7fc"/>
  <circle id="Oval-8" data-name="Oval" cx="4" cy="4" r="4" transform="translate(0 72)" fill="#f6f7fc"/>
  <circle id="Oval_Copy-8" data-name="Oval Copy" cx="4" cy="4" r="4" transform="translate(24 72)" fill="#f6f7fc"/>
  <circle id="Oval_Copy_2-8" data-name="Oval Copy 2" cx="4" cy="4" r="4" transform="translate(48 72)" fill="#f6f7fc"/>
  <circle id="Oval_Copy_4-8" data-name="Oval Copy 4" cx="4" cy="4" r="4" transform="translate(72 72)" fill="#f6f7fc"/>
  <circle id="Oval_Copy_3-8" data-name="Oval Copy 3" cx="4" cy="4" r="4" transform="translate(96 72)" fill="#f6f7fc"/>
  <circle id="Oval_Copy_6-8" data-name="Oval Copy 6" cx="4" cy="4" r="4" transform="translate(120 72)" fill="#f6f7fc"/>
  <circle id="Oval_Copy_5-8" data-name="Oval Copy 5" cx="4" cy="4" r="4" transform="translate(144 72)" fill="#f6f7fc"/>
  <circle id="Oval_Copy_13-8" data-name="Oval Copy 13" cx="4" cy="4" r="4" transform="translate(0 96)" fill="#f6f7fc"/>
  <circle id="Oval_Copy_12-8" data-name="Oval Copy 12" cx="4" cy="4" r="4" transform="translate(24 96)" fill="#f6f7fc"/>
  <circle id="Oval_Copy_11-8" data-name="Oval Copy 11" cx="4" cy="4" r="4" transform="translate(48 96)" fill="#f6f7fc"/>
  <circle id="Oval_Copy_10-8" data-name="Oval Copy 10" cx="4" cy="4" r="4" transform="translate(72 96)" fill="#f6f7fc"/>
  <circle id="Oval_Copy_9-8" data-name="Oval Copy 9" cx="4" cy="4" r="4" transform="translate(96 96)" fill="#f6f7fc"/>
  <circle id="Oval_Copy_8-8" data-name="Oval Copy 8" cx="4" cy="4" r="4" transform="translate(120 96)" fill="#f6f7fc"/>
  <circle id="Oval_Copy_7-8" data-name="Oval Copy 7" cx="4" cy="4" r="4" transform="translate(144 96)" fill="#f6f7fc"/>
  <circle id="Oval_Copy_20-8" data-name="Oval Copy 20" cx="4" cy="4" r="4" transform="translate(0 120)" fill="#f6f7fc"/>
  <circle id="Oval_Copy_19-8" data-name="Oval Copy 19" cx="4" cy="4" r="4" transform="translate(24 120)" fill="#f6f7fc"/>
  <circle id="Oval_Copy_18-8" data-name="Oval Copy 18" cx="4" cy="4" r="4" transform="translate(48 120)" fill="#f6f7fc"/>
  <circle id="Oval_Copy_17-8" data-name="Oval Copy 17" cx="4" cy="4" r="4" transform="translate(72 120)" fill="#f6f7fc"/>
  <circle id="Oval_Copy_16-8" data-name="Oval Copy 16" cx="4" cy="4" r="4" transform="translate(96 120)" fill="#f6f7fc"/>
  <circle id="Oval_Copy_15-8" data-name="Oval Copy 15" cx="4" cy="4" r="4" transform="translate(120 120)" fill="#f6f7fc"/>
  <circle id="Oval_Copy_14-8" data-name="Oval Copy 14" cx="4" cy="4" r="4" transform="translate(144 120)" fill="#f6f7fc"/>
  <circle id="Oval_Copy_62-4" data-name="Oval Copy 62" cx="4" cy="4" r="4" transform="translate(0 144)" fill="#f6f7fc"/>
  <circle id="Oval_Copy_61-4" data-name="Oval Copy 61" cx="4" cy="4" r="4" transform="translate(24 144)" fill="#f6f7fc"/>
  <circle id="Oval_Copy_60-4" data-name="Oval Copy 60" cx="4" cy="4" r="4" transform="translate(48 144)" fill="#f6f7fc"/>
  <circle id="Oval_Copy_59-4" data-name="Oval Copy 59" cx="4" cy="4" r="4" transform="translate(72 144)" fill="#f6f7fc"/>
  <circle id="Oval_Copy_58-4" data-name="Oval Copy 58" cx="4" cy="4" r="4" transform="translate(96 144)" fill="#f6f7fc"/>
  <circle id="Oval_Copy_57-4" data-name="Oval Copy 57" cx="4" cy="4" r="4" transform="translate(120 144)" fill="#f6f7fc"/>
  <circle id="Oval_Copy_56-4" data-name="Oval Copy 56" cx="4" cy="4" r="4" transform="translate(144 144)" fill="#f6f7fc"/>
  <circle id="Oval_Copy_55-4" data-name="Oval Copy 55" cx="4" cy="4" r="4" transform="translate(0 168)" fill="#f6f7fc"/>
  <circle id="Oval_Copy_54-4" data-name="Oval Copy 54" cx="4" cy="4" r="4" transform="translate(24 168)" fill="#f6f7fc"/>
  <circle id="Oval_Copy_53-4" data-name="Oval Copy 53" cx="4" cy="4" r="4" transform="translate(48 168)" fill="#f6f7fc"/>
  <circle id="Oval_Copy_52-4" data-name="Oval Copy 52" cx="4" cy="4" r="4" transform="translate(72 168)" fill="#f6f7fc"/>
  <circle id="Oval_Copy_51-4" data-name="Oval Copy 51" cx="4" cy="4" r="4" transform="translate(96 168)" fill="#f6f7fc"/>
  <circle id="Oval_Copy_50-4" data-name="Oval Copy 50" cx="4" cy="4" r="4" transform="translate(120 168)" fill="#f6f7fc"/>
  <circle id="Oval_Copy_49-4" data-name="Oval Copy 49" cx="4" cy="4" r="4" transform="translate(144 168)" fill="#f6f7fc"/>
  <circle id="Oval_Copy_48-4" data-name="Oval Copy 48" cx="4" cy="4" r="4" transform="translate(0 192)" fill="#f6f7fc"/>
  <circle id="Oval_Copy_47-4" data-name="Oval Copy 47" cx="4" cy="4" r="4" transform="translate(24 192)" fill="#f6f7fc"/>
  <circle id="Oval_Copy_46-4" data-name="Oval Copy 46" cx="4" cy="4" r="4" transform="translate(48 192)" fill="#f6f7fc"/>
  <circle id="Oval_Copy_45-4" data-name="Oval Copy 45" cx="4" cy="4" r="4" transform="translate(72 192)" fill="#f6f7fc"/>
  <circle id="Oval_Copy_44-4" data-name="Oval Copy 44" cx="4" cy="4" r="4" transform="translate(96 192)" fill="#f6f7fc"/>
  <circle id="Oval_Copy_43-4" data-name="Oval Copy 43" cx="4" cy="4" r="4" transform="translate(120 192)" fill="#f6f7fc"/>
  <circle id="Oval_Copy_42-4" data-name="Oval Copy 42" cx="4" cy="4" r="4" transform="translate(144 192)" fill="#f6f7fc"/>
  <circle id="Oval_Copy_41-4" data-name="Oval Copy 41" cx="4" cy="4" r="4" transform="translate(0 216)" fill="#f6f7fc"/>
  <circle id="Oval_Copy_40-4" data-name="Oval Copy 40" cx="4" cy="4" r="4" transform="translate(24 216)" fill="#f6f7fc"/>
  <circle id="Oval_Copy_39-4" data-name="Oval Copy 39" cx="4" cy="4" r="4" transform="translate(48 216)" fill="#f6f7fc"/>
  <circle id="Oval_Copy_38-4" data-name="Oval Copy 38" cx="4" cy="4" r="4" transform="translate(72 216)" fill="#f6f7fc"/>
  <circle id="Oval_Copy_37-4" data-name="Oval Copy 37" cx="4" cy="4" r="4" transform="translate(96 216)" fill="#f6f7fc"/>
  <circle id="Oval_Copy_36-4" data-name="Oval Copy 36" cx="4" cy="4" r="4" transform="translate(120 216)" fill="#f6f7fc"/>
  <circle id="Oval_Copy_35-4" data-name="Oval Copy 35" cx="4" cy="4" r="4" transform="translate(144 216)" fill="#f6f7fc"/>
  <circle id="Oval_Copy_34-4" data-name="Oval Copy 34" cx="4" cy="4" r="4" transform="translate(0 240)" fill="#f6f7fc"/>
  <circle id="Oval_Copy_33-4" data-name="Oval Copy 33" cx="4" cy="4" r="4" transform="translate(24 240)" fill="#f6f7fc"/>
  <circle id="Oval_Copy_32-4" data-name="Oval Copy 32" cx="4" cy="4" r="4" transform="translate(48 240)" fill="#f6f7fc"/>
  <circle id="Oval_Copy_31-4" data-name="Oval Copy 31" cx="4" cy="4" r="4" transform="translate(72 240)" fill="#f6f7fc"/>
  <circle id="Oval_Copy_30-4" data-name="Oval Copy 30" cx="4" cy="4" r="4" transform="translate(96 240)" fill="#f6f7fc"/>
  <circle id="Oval_Copy_29-4" data-name="Oval Copy 29" cx="4" cy="4" r="4" transform="translate(120 240)" fill="#f6f7fc"/>
  <circle id="Oval_Copy_28-4" data-name="Oval Copy 28" cx="4" cy="4" r="4" transform="translate(144 240)" fill="#f6f7fc"/>
  <circle id="Oval_Copy_27-4" data-name="Oval Copy 27" cx="4" cy="4" r="4" transform="translate(0 264)" fill="#f6f7fc"/>
  <circle id="Oval_Copy_26-4" data-name="Oval Copy 26" cx="4" cy="4" r="4" transform="translate(24 264)" fill="#f6f7fc"/>
  <circle id="Oval_Copy_25-4" data-name="Oval Copy 25" cx="4" cy="4" r="4" transform="translate(48 264)" fill="#f6f7fc"/>
  <circle id="Oval_Copy_24-4" data-name="Oval Copy 24" cx="4" cy="4" r="4" transform="translate(72 264)" fill="#f6f7fc"/>
  <circle id="Oval_Copy_23-4" data-name="Oval Copy 23" cx="4" cy="4" r="4" transform="translate(96 264)" fill="#f6f7fc"/>
  <circle id="Oval_Copy_22-4" data-name="Oval Copy 22" cx="4" cy="4" r="4" transform="translate(120 264)" fill="#f6f7fc"/>
  <circle id="Oval_Copy_21-4" data-name="Oval Copy 21" cx="4" cy="4" r="4" transform="translate(144 264)" fill="#f6f7fc"/>
</svg>
