<svg viewBox="0 0 620 487" xmlns="http://www.w3.org/2000/svg" xml:space="preserve" style="fill-rule:evenodd;clip-rule:evenodd;stroke-linejoin:round;stroke-miterlimit:2"><path d="M.871.447C.745.467.606.462.52.452.372.434.326.402.438.236.483.169.387.161.291.152.197.142.102.131.137.063c.085-.173.45-.537.45-.537.124.215-.035.322-.145.443C.389.028.471.027.555.03c.09.003.183.01.117.099-.109.146.017.168.21.128C.965.24.983.165.97.065c.031.172.043.35-.099.382Z" style="fill:url(#a);fill-rule:nonzero" transform="scale(-654.431 654.431) rotate(-60 .284 1.122)"/><defs><linearGradient id="a" x1="0" y1="0" x2="1" y2="0" gradientUnits="userSpaceOnUse" gradientTransform="matrix(1 0 0 -1 0 -.007)"><stop offset="0" style="stop-color:#f01901;stop-opacity:1"/><stop offset="1" style="stop-color:#f98830;stop-opacity:1"/></linearGradient></defs></svg>